<svg xmlns="http://www.w3.org/2000/svg" xmlns:xlink="http://www.w3.org/1999/xlink" xmlns:lucid="lucid" width="1140" height="660"><g transform="translate(0 -5)" lucid:page-tab-id="0_0"><path d="M459.55 553a8 8 0 0 1 8-8H1112a8 8 0 0 1 8 8v84a8 8 0 0 1-8 8H467.55a8 8 0 0 1-8-8z" fill="#fff"/><path d="M463.17 546.33l.75-.46 1.16-.48 1.22-.3h4.5m6 0h9.02m6 0h9m6.02 0h9m6.02 0h9m6 0h9.02m6 0l9.02-.02m6 0h9.02m6 0h9m6.02 0h9m6.02 0h9m6 0H636m6 0H651m6 0h9m6.02 0h9m6.02-.02h9m6 0h9.02m6 0h9.02m6 0h9.02m6 0h9m6.02 0h9m6.02 0h9m6 0h9.02m6 0h9.02m6-.02h9m6.02 0h9m6.02 0h9m6 0h9.02m6 0h9.02m6 0h9.02m6 0h9m6.02 0h9m6.02 0l9-.02m6 0h9.02m6 0h9.02m6 0h9m6.02 0h9m6.02 0h9m6 0h9.02m6 0h9.02m6 0h9.02m6 0l9-.02m6.02 0h9m6.02 0h4.5l1.25.1 1.22.3.8.33m3.4 2.9l.46.74.48 1.16.3 1.22V556m0 5.7l.02 8.52m0 5.68l.02 8.53m0 5.68l.02 8.54m0 5.68v8.53m.02 5.68v8.52m.02 5.7V637l-.1 1.25-.3 1.22-.33.8m-2.9 3.4l-.74.46-1.16.48-1.22.3h-4.5m-6 0h-9.02m-6 0h-9.02m-6 0h-9m-6 0h-9.02m-6 0h-9.02m-6 0l-9 .02m-6.02 0h-9m-6 0h-9.02m-6 0h-9.02m-6 0h-9.02m-6 0h-9m-6.02 0h-9m-6.02 0h-9m-6 0h-9.02m-6 .02h-9.02m-6 0h-9.02m-6 0h-9m-6.02 0h-9m-6 0h-9.02m-6 0h-9.02m-6 0h-9.02m-6 0h-9m-6.02 0h-9m-6.02.02h-9m-6 0h-9.02m-6 0h-9.02m-6 0h-9.02m-6 0h-9m-6.02 0h-9m-6 0h-9.02m-6 0h-9.02m-6 0l-9.02.02m-6 0h-9m-6.02 0h-9m-6.02 0h-9m-6 0h-9.02m-6 0h-9.02m-6 0h-9.02m-6 0h-9m-6.02 0h-9m-6 0l-9.02.02m-6 0h-9.02m-6 0h-4.5l-1.26-.1-1.22-.3-.82-.33m-3.38-2.9l-.46-.74-.48-1.16-.3-1.22V634m0-5.7v-8.52m-.02-5.68v-8.53m-.02-5.68v-8.54m0-5.68l-.02-8.53m0-5.68l-.02-8.52m0-5.7V553l.1-1.25.28-1.22.34-.8" stroke="#ff8f8f" stroke-width="3" fill="none"/><path d="M500 573a8 8 0 0 1 8-8h204a8 8 0 0 1 8 8v44a8 8 0 0 1-8 8H508a8 8 0 0 1-8-8z" stroke="#333" fill="#fff0f0"/><use xlink:href="#a" transform="matrix(1,0,0,1,505,570) translate(38.625 30.025)"/><path d="M20 33a8 8 0 0 1 8-8h364a8 8 0 0 1 8 8v84a8 8 0 0 1-8 8H28a8 8 0 0 1-8-8z" fill="#fff"/><path d="M23.62 26.33l.75-.46 1.16-.48 1.22-.3h4.56m6.1 0h9.13m6.1 0h9.12m6.1 0h9.12m6.1-.02h9.12m6.08 0h9.13m6.1 0h9.13m6.08 0h9.15m6.08 0l9.13-.02m6.1 0h9.12m6.1 0h9.12m6.1 0h9.12m6.1 0h9.12m6.1 0l9.12-.02m6.1 0h9.12m6.1 0h9.12m6.08 0h9.14m6.08 0h9.13m6.1 0l9.12-.02m6.1 0h9.12m6.1 0h9.12m6.08 0h9.13m6.1 0h9.13m6.1 0l9.12-.02m6.08 0H392l1.25.1 1.22.3.8.33m3.4 2.9l.46.74.48 1.16.3 1.22V36m0 5.7l.02 8.52m0 5.68l.02 8.53m0 5.68l.02 8.54m0 5.68v8.53m.02 5.68v8.52m.02 5.7V117l-.1 1.25-.3 1.22-.33.8m-2.9 3.4l-.74.46-1.16.48-1.22.3h-4.56m-6.1 0h-9.13m-6.1 0h-9.12m-6.1 0h-9.12m-6.1.02h-9.12m-6.08 0h-9.13m-6.1 0h-9.13m-6.08 0h-9.15m-6.08 0l-9.13.02m-6.1 0h-9.12m-6.1 0h-9.12m-6.1 0h-9.12m-6.1 0h-9.12m-6.1 0l-9.12.02m-6.1 0h-9.12m-6.1 0h-9.12m-6.08 0h-9.14m-6.08 0h-9.13m-6.1 0l-9.12.02m-6.1 0h-9.12m-6.1 0h-9.12m-6.08 0H69.1m-6.1 0h-9.13m-6.1 0l-9.12.02m-6.08 0H28l-1.25-.1-1.22-.3-.8-.33m-3.4-2.9l-.46-.74-.48-1.16-.3-1.22V114m0-5.7l-.02-8.52m0-5.68l-.02-8.53m0-5.68l-.02-8.54m0-5.68v-8.53M20 51.47v-8.52m-.02-5.7V33l.1-1.25.3-1.22.33-.8" stroke="#1071e5" stroke-width="3" fill="none"/><path d="M20 153a8 8 0 0 1 8-8h364a8 8 0 0 1 8 8v484a8 8 0 0 1-8 8H28a8 8 0 0 1-8-8z" fill="#fff"/><path d="M23.62 146.33l.75-.46 1.16-.48 1.22-.3h4.56m6.1 0h9.13m6.1 0h9.12m6.1 0h9.12m6.1-.02h9.12m6.08 0h9.13m6.1 0h9.13m6.08 0h9.15m6.08 0l9.13-.02m6.1 0h9.12m6.1 0h9.12m6.1 0h9.12m6.1 0h9.12m6.1 0l9.12-.02m6.1 0h9.12m6.1 0h9.12m6.08 0h9.14m6.08 0h9.13m6.1 0l9.12-.02m6.1 0h9.12m6.1 0h9.12m6.08 0h9.13m6.1 0h9.13m6.1 0l9.12-.02m6.08 0H392l1.25.1 1.22.3.8.33m3.4 2.9l.46.74.48 1.16.3 1.22v4.55m0 6.06v9.1m0 6.07v9.1m0 6.06v9.1m0 6.06v9.1m.02 6.06v9.1m0 6.06v9.1m0 6.07v9.1m0 6.06v9.1m0 6.08v9.1m0 6.06v9.1m0 6.06l.02 9.1m0 6.07v9.1m0 6.06v9.1m0 6.07v9.1m0 6.06v9.1m0 6.07v9.1m0 6.06v9.1m.02 6.05v9.1m0 6.07v9.1m0 6.06v9.1m0 6.07v9.1m0 6.06v9.1m0 6.07v9.1m0 6.07l.02 9.1m0 6.06v9.1m0 6.07v9.1m0 6.06v9.1m0 6.06v9.1m0 6.06v9.1m0 6.06v9.1m.02 6.07v9.1m0 6.05V637l-.1 1.25-.3 1.22-.33.8m-2.9 3.4l-.74.46-1.16.48-1.22.3h-4.56m-6.1 0h-9.13m-6.1 0h-9.12m-6.1 0h-9.12m-6.1.02h-9.12m-6.08 0h-9.13m-6.1 0h-9.13m-6.08 0h-9.15m-6.08 0l-9.13.02m-6.1 0h-9.12m-6.1 0h-9.12m-6.1 0h-9.12m-6.1 0h-9.12m-6.1 0l-9.12.02m-6.1 0h-9.12m-6.1 0h-9.12m-6.08 0h-9.14m-6.08 0h-9.13m-6.1 0l-9.12.02m-6.1 0h-9.12m-6.1 0h-9.12m-6.08 0H69.1m-6.1 0h-9.13m-6.1 0l-9.12.02m-6.08 0H28l-1.25-.1-1.22-.3-.8-.33m-3.4-2.9l-.46-.74-.48-1.16-.3-1.22v-4.55m0-6.06v-9.1m0-6.07v-9.1m0-6.06v-9.1m0-6.06v-9.1m-.02-6.06v-9.1m0-6.06v-9.1m0-6.07v-9.1m0-6.06v-9.1m0-6.08v-9.1m0-6.06v-9.1m0-6.06l-.02-9.1m0-6.07v-9.1m0-6.06v-9.1m0-6.07v-9.1m0-6.06v-9.1m0-6.07v-9.1m0-6.06v-9.1m-.02-6.05v-9.1m0-6.07v-9.1m0-6.06v-9.1m0-6.07v-9.1m0-6.06v-9.1m0-6.07v-9.1m0-6.07l-.02-9.1m0-6.06v-9.1m0-6.07v-9.1m0-6.06v-9.1m0-6.06v-9.1m0-6.06v-9.1m0-6.06v-9.1M20 172.7v-9.1m0-6.05V153l.1-1.25.3-1.22.33-.8" stroke="#9391ff" stroke-width="3" fill="none"/><path d="M140 533a8 8 0 0 1 8-8h204a8 8 0 0 1 8 8v44a8 8 0 0 1-8 8H148a8 8 0 0 1-8-8z" stroke="#333" fill="#f2f2ff"/><use xlink:href="#b" transform="matrix(1,0,0,1,145,530) translate(64.05 30.025)"/><path d="M140 333a8 8 0 0 1 8-8h204a8 8 0 0 1 8 8v44a8 8 0 0 1-8 8H148a8 8 0 0 1-8-8z" stroke="#333" fill="#f2f2ff"/><use xlink:href="#c" transform="matrix(1,0,0,1,145,330) translate(4.650000000000006 30.025)"/><path d="M140 433a8 8 0 0 1 8-8h204a8 8 0 0 1 8 8v44a8 8 0 0 1-8 8H148a8 8 0 0 1-8-8z" stroke="#333" fill="#f2f2ff"/><use xlink:href="#d" transform="matrix(1,0,0,1,145,430.00000000000006) translate(13.125 30.025)"/><path d="M459.55 33a8 8 0 0 1 8-8h644a8 8 0 0 1 8 8v84a8 8 0 0 1-8 8h-644a8 8 0 0 1-8-8z" fill="#fff"/><path d="M463.17 26.33l.75-.46 1.16-.48 1.22-.3h4.5m6 0h9m6 0h9m6 0h9.02m6 0h9m6 0h9m6 0l9-.02m6.02 0h9m6 0h9m6 0h9m6 0h9.02m6 0h9m6 0h9m6 0h9m6.02 0h9m6-.02h9m6 0h9m6 0h9.02m6 0h9m6 0h9m6 0h9.02m6 0h9m6 0h9m6 0h9m6.02-.02h9m6 0h9m6 0h9m6 0h9.02m6 0h9m6 0h9m6 0h9m6.02 0h9m6 0l9-.02m6 0h9m6 0H981m6 0h9m6 0h9m6 0h9m6.02 0h9m6 0h9m6 0h9m6 0l9.02-.02m6 0h9m6 0h4.5l1.26.1 1.22.3.8.33m3.4 2.9l.46.74.48 1.16.3 1.22V36m0 5.7v8.52m.02 5.68v8.53m0 5.68l.02 8.54m0 5.68l.02 8.53m0 5.68l.02 8.52m0 5.7V117l-.1 1.25-.28 1.22-.34.8m-2.9 3.4l-.74.46-1.16.48-1.22.3h-4.5m-6 0h-9m-6 0h-9m-6.02 0h-9m-6 0h-9m-6 0h-9m-6 0l-9.02.02m-6 0h-9m-6 0h-9m-6 0h-9m-6.02 0h-9m-6 0h-9m-6 0h-9m-6 0h-9.02m-6 0h-9m-6 .02h-9m-6 0h-9.02m-6 0h-9m-6 0h-9m-6 0h-9m-6.02 0h-9m-6 0h-9m-6 0h-9m-6 0h-9.02m-6 .02h-9m-6 0h-9m-6 0h-9m-6.02 0h-9m-6 0h-9m-6 0h-9m-6 0h-9.02m-6 0h-9m-6 0l-9 .02m-6 0h-9.02m-6 0h-9m-6 0h-9m-6 0h-9m-6.02 0h-9m-6 0h-9m-6 0h-9m-6 0h-9.02m-6 0l-9 .02m-6 0h-9m-6 0h-4.5l-1.26-.1-1.22-.3-.82-.33m-3.38-2.9l-.46-.74-.48-1.16-.3-1.22V114m0-5.7V99.8m-.02-5.68v-8.53m-.02-5.68v-8.54m0-5.68l-.02-8.53m0-5.68l-.02-8.52m0-5.7V33l.1-1.25.28-1.22.34-.8" stroke="#54c45e" stroke-width="3" fill="none"/><path d="M859.55 53a8 8 0 0 1 8-8h204a8 8 0 0 1 8 8v44a8 8 0 0 1-8 8h-204a8 8 0 0 1-8-8z" stroke="#333" fill="#e3fae3"/><use xlink:href="#e" transform="matrix(1,0,0,1,864.5479246810182,50) translate(50.12499999999999 30.025)"/><path d="M499.55 53a8 8 0 0 1 8-8h204a8 8 0 0 1 8 8v44a8 8 0 0 1-8 8h-204a8 8 0 0 1-8-8z" stroke="#333" fill="#e3fae3"/><use xlink:href="#f" transform="matrix(1,0,0,1,504.54792468101823,50) translate(58.099999999999994 30.025)"/><path d="M460 153a8 8 0 0 1 8-8h644a8 8 0 0 1 8 8v374a8 8 0 0 1-8 8H468a8 8 0 0 1-8-8z" fill="#fff"/><path d="M463.62 146.33l.75-.46 1.16-.48 1.22-.3h4.5m6 0h9m6 0h9m6 0h9.02m6 0h9m6 0h9m6 0l9.02-.02m6 0h9m6 0h9m6 0h9m6 0h9m6 0h9m6.02 0h9m6 0h9m6 0h9m6-.02h9.02m6 0h9m6 0h9m6 0h9.02m6 0h9m6 0h9m6 0h9m6.02 0h9m6 0h9m6-.02h9m6 0h9.02m6 0h9m6 0h9m6 0h9m6.02 0h9m6 0h9m6 0h9m6 0l9.02-.02m6 0h9m6 0h9m6 0h9m6.02 0h9m6 0h9m6 0h9m6 0h9.02m6 0h9m6 0l9-.02m6 0h9.02m6 0h4.5l1.25.1 1.22.3.8.33m3.4 2.9l.46.74.48 1.16.3 1.22v4.5m0 6v9m0 6.02v9m0 6v9m.02 6.02v9m0 6v9m0 6v9m0 6.02v9m0 6v9m.02 6.02v9m0 6v9m0 6.02v9m0 6v9m0 6.02v9m.02 6v9m0 6.02v9m0 6v9m0 6.02v9m0 6v9m.02 6.02v9m0 6v9m0 6.02v9m0 6v9m0 6.02v9m0 6l.02 9m0 6.02v4.5l-.1 1.25-.3 1.22-.33.8m-2.9 3.4l-.74.46-1.16.48-1.22.3h-4.5m-6 0h-9m-6 0h-9m-6 0h-9.02m-6 0h-9m-6 0h-9m-6 0l-9.02.02m-6 0h-9m-6 0h-9m-6 0h-9m-6 0h-9m-6 0h-9m-6.02 0h-9m-6 0h-9m-6 0h-9m-6 .02h-9.02m-6 0h-9m-6 0h-9m-6 0h-9.02m-6 0h-9m-6 0h-9m-6 0h-9m-6.02 0h-9m-6 0h-9m-6 .02h-9m-6 0h-9.02m-6 0h-9m-6 0h-9m-6 0h-9m-6.02 0h-9m-6 0h-9m-6 0h-9m-6 0l-9.02.02m-6 0h-9m-6 0h-9m-6 0h-9m-6.02 0h-9m-6 0h-9m-6 0h-9m-6 0h-9.02m-6 0h-9m-6 0l-9 .02m-6 0h-9.02m-6 0H468l-1.25-.1-1.22-.3-.8-.33m-3.4-2.9l-.46-.74-.48-1.16-.3-1.22v-4.5m0-6v-9m0-6.02v-9m0-6v-9m-.02-6.02v-9m0-6v-9m0-6v-9m0-6.02v-9m0-6v-9m-.02-6.02v-9m0-6v-9m0-6.02v-9m0-6v-9m0-6.02v-9m-.02-6v-9m0-6.02v-9m0-6v-9m0-6.02v-9m0-6v-9m-.02-6.02v-9m0-6v-9m0-6.02v-9m0-6v-9m0-6.02v-9m0-6l-.02-9m0-6.02V153l.1-1.25.3-1.22.33-.8" stroke="#00c2a8" stroke-width="3" fill="none"/><path d="M860 173a8 8 0 0 1 8-8h204a8 8 0 0 1 8 8v44a8 8 0 0 1-8 8H868a8 8 0 0 1-8-8z" stroke="#333" fill="#d7faf5"/><use xlink:href="#g" transform="matrix(1,0,0,1,865,170) translate(40.099999999999994 30.025)"/><path d="M860 463a8 8 0 0 1 8-8h204a8 8 0 0 1 8 8v44a8 8 0 0 1-8 8H868a8 8 0 0 1-8-8z" stroke="#333" fill="#d7faf5"/><use xlink:href="#h" transform="matrix(1,0,0,1,865,460) translate(39.57499999999999 30.025)"/><path d="M860 333a8 8 0 0 1 8-8h204a8 8 0 0 1 8 8v44a8 8 0 0 1-8 8H868a8 8 0 0 1-8-8z" stroke="#333" fill="#d7faf5"/><use xlink:href="#i" transform="matrix(1,0,0,1,865,330) translate(52.62499999999999 30.025)"/><path d="M500 333a8 8 0 0 1 8-8h204a8 8 0 0 1 8 8v44a8 8 0 0 1-8 8H508a8 8 0 0 1-8-8z" stroke="#333" fill="#d7faf5"/><use xlink:href="#j" transform="matrix(1,0,0,1,505,330) translate(37.07499999999999 30.025)"/><path d="M498.05 355.04l-2.84.07-3.87.3-3.54.46-3.28.58-3.06.72-2.9.84-2.82.96-2.75 1.1-2.78 1.3-2.84 1.5-3.04 1.8-3.5 2.32-4.84 3.6-15.84 12.44-3.5 2.33-3.04 1.8-2.85 1.5-2.76 1.28-2.74 1.1-2.8.97-.66.2" stroke="#00c2a8" stroke-width="3" stroke-linejoin="round" fill="none"/><path d="M499.55 356.5l-1.5.04-.08-3 1.57-.04z" stroke="#00c2a8" stroke-width=".05" fill="#00c2a8"/><path d="M406.26 394.34l13.5-6.55 1.27 9.18z" stroke="#00c2a8" stroke-width="3" fill="#00c2a8"/><path d="M140 173a8 8 0 0 1 8-8h204a8 8 0 0 1 8 8v44a8 8 0 0 1-8 8H148a8 8 0 0 1-8-8z" stroke="#333" fill="#f2f2ff"/><use xlink:href="#k" transform="matrix(1,0,0,1,145,170) translate(69.05 30.025)"/><path d="M140 53a8 8 0 0 1 8-8h204a8 8 0 0 1 8 8v44a8 8 0 0 1-8 8H148a8 8 0 0 1-8-8z" stroke="#cfe4ff" fill="#edf5ff"/><use xlink:href="#l" transform="matrix(1,0,0,1,145,50) translate(44.55 30.025)"/><path d="M721.45 355h119.6" stroke="#00c2a8" stroke-width="2" stroke-linejoin="round" fill="none"/><path d="M721.48 356h-1.03v-2h1.03z" stroke="#00c2a8" stroke-width=".05" fill="#00c2a8"/><path d="M856.3 355l-14.25 4.64v-9.28z" stroke="#00c2a8" stroke-width="2" fill="#00c2a8"/><path d="M721.45 355.02l1.3.03 2.2.14 2.1.2 2.07.3 2 .4 1.97.46 1.92.53 1.9.6 1.9.72 1.88.8 1.88.87 1.9.98 1.9 1.1 1.95 1.24 2 1.38 2.03 1.55 2.1 1.75 2.2 1.98 2.32 2.27 2.47 2.63 2.66 3.1 2.95 3.7 3.32 4.58 3.98 6 5.35 8.86 25.95 46.42 3.98 6 3.32 4.6 2.94 3.7 2.65 3.08 2.47 2.63 2.3 2.27 2.2 1.98 2.12 1.75 2.04 1.55 2 1.38 1.93 1.23 1.93 1.12 1.9 1 1.87.87 1.9.78.25.1" stroke="#00c2a8" stroke-width="2" stroke-linejoin="round" fill="none"/><path d="M721.5 354.02l-.04 2-1-.02v-2z" stroke="#00c2a8" stroke-width=".05" fill="#00c2a8"/><path d="M856.36 484.42l-14.86 1.98 1.67-9.1z" stroke="#00c2a8" stroke-width="2" fill="#00c2a8"/><path d="M721.45 354.98l.87-.02 1.8-.1 1.77-.2 1.7-.25 1.7-.3 1.65-.4 1.64-.46 1.62-.53 1.62-.6 1.63-.68 1.63-.77 1.65-.86 1.67-.97 1.7-1.1 1.75-1.2 1.8-1.36 1.85-1.54 1.93-1.74 2.02-2 2.14-2.27 2.3-2.64 2.45-3.12 2.7-3.7 3-4.53 3.45-5.72 4.2-7.65 5.78-11.72 26.82-58.84 4.2-7.65 3.46-5.72 3-4.53 2.7-3.7 2.45-3.1 2.3-2.65 2.13-2.28 2.02-2 1.93-1.73 1.86-1.54 1.8-1.36 1.73-1.2 1.7-1.1 1.68-.96 1.65-.85.74-.35" stroke="#00c2a8" stroke-width="2" stroke-linejoin="round" fill="none"/><path d="M721.5 355.98l-1.05.02v-2l1-.02z" stroke="#00c2a8" stroke-width=".05" fill="#00c2a8"/><path d="M856.4 195.7l-12.92 7.64-2.02-9.05z" stroke="#00c2a8" stroke-width="2" fill="#00c2a8"/><path d="M361.45 195.03l.5.03.75.08.73.1.74.15.74.16.76.2.75.26.78.28.78.33.8.38.8.43.85.5.88.54.9.63.95.72 1 .8 1.03.95 1.1 1.1 1.18 1.24 1.26 1.47 1.36 1.72 1.47 2.02 1.62 2.44 1.78 2.95 2 3.64 2.25 4.56 2.6 5.82 3 7.65 3.63 10.44 4.5 15 6.02 23.58 9.72 46.46 9.88 52.72c2.7-.5 5.32 1.28 5.83 4 .5 2.7-1.28 5.32-4 5.83L451.1 504.8l6 23.57 4.5 15 3.63 10.43 3.03 7.65 2.6 5.82 2.24 4.56 2 3.63 1.78 2.94 1.62 2.44 1.47 2.03 1.36 1.73 1.26 1.46.87.92" stroke="#635dff" stroke-width="2" stroke-linejoin="round" fill="none"/><path d="M361.5 194.02l-.04 2-1-.02v-2z" stroke="#635dff" stroke-width=".05" fill="#635dff"/><path d="M496.65 593.56l-14.84-2.17 4.12-8.32z" stroke="#635dff" stroke-width="2" fill="#635dff"/><path d="M138.54 195.02l-2.56.05-3.45.22-3.36.34-3.28.5-3.23.6-3.15.74-3.1.87-3.06 1-3.03 1.12-3 1.26-3 1.4-2.97 1.57-2.98 1.72-2.98 1.9-2.98 2.06-3 2.28-3.02 2.5-3.05 2.74-3.07 3-3.1 3.32-3.14 3.64-3.18 4-3.2 4.42-3.24 4.87-3.25 5.38-3.27 5.95-3.26 6.57-3.24 7.27-3.17 8.03-3.08 8.84-2.92 9.7-2.72 10.6-2.43 11.47-2.08 12.3-1.65 13.06-1.14 13.63-.58 14v14.12l.6 14 1.13 13.62L35 422.75l2.08 12.3 2.44 11.48 2.7 10.6 2.94 9.7 3.08 8.84 3.17 8.02 3.25 7.26 3.26 6.58 3.28 5.95 3.25 5.36 3.24 4.87 3.2 4.42 3.17 4 3.14 3.64 3.1 3.3 3.08 3 3.04 2.75 3.02 2.5 3 2.27 3 2.08 2.97 1.9 2.96 1.7 2.98 1.56 3 1.4 3 1.27 3.02 1.13 3.07 1 3.1.86 1.68.4" stroke="#635dff" stroke-width="2" stroke-linejoin="round" fill="none"/><path d="M139.55 196l-1 .02-.05-2 1.05-.02z" stroke="#635dff" stroke-width=".05" fill="#635dff"/><path d="M136.33 554.63l-14.7 3 1.05-9.2z" stroke="#635dff" stroke-width="2" fill="#635dff"/><path d="M721 75h119.6" stroke="#008a0e" stroke-width="2" fill="none"/><path d="M721.03 76H720v-2h1.03z" stroke="#008a0e" stroke-width=".05" fill="#008a0e"/><path d="M855.86 75l-14.27 4.64v-9.28z" stroke="#008a0e" stroke-width="2" fill="#008a0e"/><path d="M361.45 194.98l1.46-.03 2.37-.15 2.26-.24 2.2-.32 2.12-.4 2.08-.5 2.04-.56 2-.66 2-.74 1.97-.83 1.98-.93 1.98-1.03 2-1.17 2.03-1.3 2.08-1.43 2.14-1.62 2.2-1.83 2.32-2.08 2.44-2.4 2.6-2.78 2.87-3.32 3.2-4.03 3.74-5.17 4.83-7.3 27.7-45.66 3.76-5.17 3.18-4.03 2.85-3.3 2.62-2.8 2.44-2.4 2.3-2.07 2.2-1.83 2.14-1.62 2.08-1.44 2.03-1.3 2-1.15 1.98-1.02 1.98-.93 1.98-.83 1.37-.5" stroke="#635dff" stroke-width="2" stroke-linejoin="round" fill="none"/><path d="M361.5 195.98l-1.05.02v-2l1-.02z" stroke="#635dff" stroke-width=".05" fill="#635dff"/><path d="M495.9 75.55l-13.27 6.97-1.57-9.14z" stroke="#635dff" stroke-width="2" fill="#635dff"/><path d="M250 385.95v22.22" stroke="#333" fill="none"/><path d="M250.5 385.96h-1v-.5h1z" stroke="#333" stroke-width=".05" fill="#333"/><path d="M250 422.93l-4.64-14.26h9.28z" stroke="#333" fill="#333"/><path d="M610 386.45v159.6" stroke="#00c2a8" stroke-width="2" fill="none"/><path d="M611 386.48h-2v-1.03h2z" stroke="#00c2a8" stroke-width=".05" fill="#00c2a8"/><path d="M610 561.3l-4.64-14.25h9.28z" stroke="#00c2a8" stroke-width="2" fill="#00c2a8"/><path d="M610 323.55V215.23a.23.23 0 0 0-.23-.23.23.23 0 0 1-.22-.23v-90.82" stroke="#00c2a8" stroke-width="2" fill="none"/><path d="M611 324.55h-2v-1.03h2z" stroke="#00c2a8" stroke-width=".05" fill="#00c2a8"/><path d="M609.55 108.7l4.63 14.25h-9.27z" stroke="#00c2a8" stroke-width="2" fill="#00c2a8"/><path d="M138.55 195.02h-.6l-1.52.1-1.5.17-1.45.2-1.43.27-1.4.33-1.38.4-1.36.43-1.34.5-1.33.56-1.33.62-1.33.7-1.32.75-1.32.84-1.33.94-1.33 1-1.35 1.12-1.35 1.22-1.36 1.34-1.37 1.47-1.4 1.6-1.4 1.78-1.43 1.97-1.44 2.16-1.45 2.4-1.44 2.64-1.45 2.93-1.43 3.23-1.4 3.57-1.38 3.93-1.3 4.3-1.2 4.72-1.1 5.1-.92 5.47-.73 5.8-.5 6.05-.27 6.22v6.28l.26 6.22.5 6.05.74 5.8.93 5.47 1.1 5.1 1.2 4.7 1.3 4.3 1.37 3.94 1.4 3.57 1.44 3.24 1.46 2.92 1.46 2.64 1.44 2.4 1.44 2.16 1.42 1.96 1.4 1.78 1.4 1.62 1.4 1.47 1.35 1.32 1.36 1.22 1.34 1.1 1.33 1.03 1.33.92 1.32.83.63.36" stroke="#635dff" stroke-width="2" stroke-linejoin="round" fill="none"/><path d="M139.55 196l-1 .02-.05-2 1.05-.02z" stroke="#635dff" stroke-width=".05" fill="#635dff"/><path d="M136.42 354.17l-14.98.8 2.4-8.96z" stroke="#635dff" stroke-width="2" fill="#635dff"/><path d="M138.55 195.02l-1.58.03-2.5.16-2.42.27-2.37.35-2.32.44-2.28.53-2.24.62-2.2.72-2.2.8-2.17.92-2.15 1.02-2.16 1.12-2.14 1.24-2.15 1.37-2.16 1.5-2.16 1.66-2.18 1.8-2.2 1.98-2.22 2.18-2.24 2.38-2.27 2.63-2.3 2.9-2.3 3.18-2.34 3.53-2.36 3.88-2.36 4.3-2.36 4.76-2.33 5.25-2.3 5.8-2.23 6.4-2.1 7-1.97 7.66-1.76 8.3-1.5 8.88-1.2 9.42-.82 9.84-.42 10.1v10.2l.43 10.12.82 9.84 1.2 9.42 1.5 8.9 1.75 8.28 1.96 7.65 2.12 7.02 2.22 6.4 2.3 5.78 2.33 5.25 2.36 4.75 2.35 4.3 2.35 3.88 2.33 3.52 2.32 3.18 2.3 2.9 2.25 2.62 2.25 2.4 2.22 2.16 2.2 1.98 2.18 1.8 2.16 1.65 2.17 1.5 2.15 1.36 2.15 1.24 2.15 1.12 2.16 1.02 2.17.9 2.2.83.7.23" stroke="#635dff" stroke-width="2" stroke-linejoin="round" fill="none"/><path d="M139.55 196l-1 .02-.05-2 1.05-.02z" stroke="#635dff" stroke-width=".05" fill="#635dff"/><path d="M136.35 454.5l-14.82 2.32 1.46-9.15z" stroke="#635dff" stroke-width="2" fill="#635dff"/><path d="M361.95 195.03l2.38.05 3.6.23 3.37.36 3.16.47 3 .57 2.86.67 2.74.76 2.64.86 2.56.94 2.5 1.05 2.43 1.14 2.4 1.25 2.37 1.37 2.38 1.5 2.38 1.66 2.4 1.83 2.46 2.03 2.5 2.26 2.64 2.58 2.77 2.95 3 3.45 3.3 4.16 3.82 5.3 4.9 7.4 11.22 18.8 13.46 22.62 5.86 8.84 4.82 6.64 4.33 5.48 4.07 4.7 3.9 4.15 3.8 3.72 2.04 1.84" stroke="#635dff" stroke-width="3" stroke-linejoin="round" fill="none"/><path d="M362.02 193.53l-.06 3-1.5-.03v-3z" stroke="#635dff" stroke-width=".05" fill="#635dff"/><path d="M496.6 326.13l-14.2-4.85 5.56-7.42z" stroke="#635dff" stroke-width="3" fill="#635dff"/><path d="M250 106.95v5.55m0 7.4V131m0 7.38v5.55" stroke="#1071e5" stroke-width="3" fill="none"/><path d="M251.5 107h-3v-1.55h3z" stroke="#1071e5" stroke-width=".05" fill="#1071e5"/><path d="M250 159.7l-4.64-14.27h9.28z" stroke="#1071e5" stroke-width="3" fill="#1071e5"/><path d="M361.95 195h242.6c0-2.76 2.24-5 5-5s5 2.24 5 5h224.38" stroke="#9391ff" stroke-width="3" fill="none"/><path d="M362 196.5h-1.54v-3h1.53z" stroke="#9391ff" stroke-width=".05" fill="#9391ff"/><path d="M854.7 195l-14.27 4.64v-9.28z" stroke="#9391ff" stroke-width="3" fill="#9391ff"/><defs><path fill="#333" d="M212-179c-10-28-35-45-73-45-59 0-87 40-87 99 0 60 29 101 89 101 43 0 62-24 78-52l27 14C228-24 195 4 139 4 59 4 22-46 18-125c-6-104 99-153 187-111 19 9 31 26 39 46" id="m"/><path fill="#333" d="M84 4C-5 8 30-112 23-190h32v120c0 31 7 50 39 49 72-2 45-101 50-169h31l1 190h-30c-1-10 1-25-2-33-11 22-28 36-60 37" id="n"/><path fill="#333" d="M114-163C36-179 61-72 57 0H25l-1-190h30c1 12-1 29 2 39 6-27 23-49 58-41v29" id="o"/><path fill="#333" d="M100-194c63 0 86 42 84 106H49c0 40 14 67 53 68 26 1 43-12 49-29l28 8c-11 28-37 45-77 45C44 4 14-33 15-96c1-61 26-98 85-98zm52 81c6-60-76-77-97-28-3 7-6 17-6 28h103" id="p"/><path fill="#333" d="M117-194c89-4 53 116 60 194h-32v-121c0-31-8-49-39-48C34-167 62-67 57 0H25l-1-190h30c1 10-1 24 2 32 11-22 29-35 61-36" id="q"/><path fill="#333" d="M96-169c-40 0-48 33-48 73s9 75 48 75c24 0 41-14 43-38l32 2c-6 37-31 61-74 61-59 0-76-41-82-99-10-93 101-131 147-64 4 7 5 14 7 22l-32 3c-4-21-16-35-41-35" id="r"/><path fill="#333" d="M179-190L93 31C79 59 56 82 12 73V49c39 6 53-20 64-50L1-190h34L92-34l54-156h33" id="s"/><path fill="#333" d="M185-189c-5-48-123-54-124 2 14 75 158 14 163 119 3 78-121 87-175 55-17-10-28-26-33-46l33-7c5 56 141 63 141-1 0-78-155-14-162-118-5-82 145-84 179-34 5 7 8 16 11 25" id="t"/><path fill="#333" d="M108 0H70L1-190h34L89-25l56-165h34" id="u"/><path fill="#333" d="M24-231v-30h32v30H24zM24 0v-190h32V0H24" id="v"/><g id="a"><use transform="matrix(0.05,0,0,0.05,0,0)" xlink:href="#m"/><use transform="matrix(0.05,0,0,0.05,12.950000000000001,0)" xlink:href="#n"/><use transform="matrix(0.05,0,0,0.05,22.950000000000003,0)" xlink:href="#o"/><use transform="matrix(0.05,0,0,0.05,28.900000000000002,0)" xlink:href="#o"/><use transform="matrix(0.05,0,0,0.05,34.85,0)" xlink:href="#p"/><use transform="matrix(0.05,0,0,0.05,44.85,0)" xlink:href="#q"/><use transform="matrix(0.05,0,0,0.05,54.85,0)" xlink:href="#r"/><use transform="matrix(0.05,0,0,0.05,63.85,0)" xlink:href="#s"/><use transform="matrix(0.05,0,0,0.05,72.85,0)" xlink:href="#t"/><use transform="matrix(0.05,0,0,0.05,84.85,0)" xlink:href="#p"/><use transform="matrix(0.05,0,0,0.05,94.85,0)" xlink:href="#o"/><use transform="matrix(0.05,0,0,0.05,100.8,0)" xlink:href="#u"/><use transform="matrix(0.05,0,0,0.05,109.80000000000001,0)" xlink:href="#v"/><use transform="matrix(0.05,0,0,0.05,113.75,0)" xlink:href="#r"/><use transform="matrix(0.05,0,0,0.05,122.75,0)" xlink:href="#p"/></g><path fill="#333" d="M205 0l-28-72H64L36 0H1l101-248h38L239 0h-34zm-38-99l-47-123c-12 45-31 82-46 123h93" id="w"/><path fill="#333" d="M85-194c31 0 48 13 60 33l-1-100h32l1 261h-30c-2-10 0-23-3-31C134-8 116 4 85 4 32 4 16-35 15-94c0-66 23-100 70-100zm9 24c-40 0-46 34-46 75 0 40 6 74 45 74 42 0 51-32 51-76 0-42-9-74-50-73" id="x"/><g id="b"><use transform="matrix(0.05,0,0,0.05,0,0)" xlink:href="#w"/><use transform="matrix(0.05,0,0,0.05,12,0)" xlink:href="#x"/><use transform="matrix(0.05,0,0,0.05,22,0)" xlink:href="#t"/><use transform="matrix(0.05,0,0,0.05,34,0)" xlink:href="#p"/><use transform="matrix(0.05,0,0,0.05,44,0)" xlink:href="#o"/><use transform="matrix(0.05,0,0,0.05,49.95,0)" xlink:href="#u"/><use transform="matrix(0.05,0,0,0.05,58.95,0)" xlink:href="#v"/><use transform="matrix(0.05,0,0,0.05,62.900000000000006,0)" xlink:href="#r"/><use transform="matrix(0.05,0,0,0.05,71.9,0)" xlink:href="#p"/></g><path fill="#333" d="M233-177c-1 41-23 64-60 70L243 0h-38l-65-103H63V0H30v-248c88 3 205-21 203 71zM63-129c60-2 137 13 137-47 0-61-80-42-137-45v92" id="y"/><path fill="#333" d="M100-194c62-1 85 37 85 99 1 63-27 99-86 99S16-35 15-95c0-66 28-99 85-99zM99-20c44 1 53-31 53-75 0-43-8-75-51-75s-53 32-53 75 10 74 51 75" id="z"/><path fill="#333" d="M210-169c-67 3-38 105-44 169h-31v-121c0-29-5-50-35-48C34-165 62-65 56 0H25l-1-190h30c1 10-1 24 2 32 10-44 99-50 107 0 11-21 27-35 58-36 85-2 47 119 55 194h-31v-121c0-29-5-49-35-48" id="A"/><path fill="#333" d="M141-36C126-15 110 5 73 4 37 3 15-17 15-53c-1-64 63-63 125-63 3-35-9-54-41-54-24 1-41 7-42 31l-33-3c5-37 33-52 76-52 45 0 72 20 72 64v82c-1 20 7 32 28 27v20c-31 9-61-2-59-35zM48-53c0 20 12 33 32 33 41-3 63-29 60-74-43 2-92-5-92 41" id="B"/><path fill="#333" d="M59-47c-2 24 18 29 38 22v24C64 9 27 4 27-40v-127H5v-23h24l9-43h21v43h35v23H59v120" id="C"/><g id="c"><use transform="matrix(0.05,0,0,0.05,0,0)" xlink:href="#y"/><use transform="matrix(0.05,0,0,0.05,12.950000000000001,0)" xlink:href="#p"/><use transform="matrix(0.05,0,0,0.05,22.950000000000003,0)" xlink:href="#r"/><use transform="matrix(0.05,0,0,0.05,31.950000000000003,0)" xlink:href="#z"/><use transform="matrix(0.05,0,0,0.05,41.95,0)" xlink:href="#A"/><use transform="matrix(0.05,0,0,0.05,56.900000000000006,0)" xlink:href="#A"/><use transform="matrix(0.05,0,0,0.05,71.85000000000001,0)" xlink:href="#p"/><use transform="matrix(0.05,0,0,0.05,81.85000000000001,0)" xlink:href="#q"/><use transform="matrix(0.05,0,0,0.05,91.85000000000001,0)" xlink:href="#x"/><use transform="matrix(0.05,0,0,0.05,101.85000000000001,0)" xlink:href="#B"/><use transform="matrix(0.05,0,0,0.05,111.85000000000001,0)" xlink:href="#C"/><use transform="matrix(0.05,0,0,0.05,116.85000000000001,0)" xlink:href="#v"/><use transform="matrix(0.05,0,0,0.05,120.80000000000001,0)" xlink:href="#z"/><use transform="matrix(0.05,0,0,0.05,130.8,0)" xlink:href="#q"/><use transform="matrix(0.05,0,0,0.05,140.8,0)" xlink:href="#t"/><use transform="matrix(0.05,0,0,0.05,152.8,0)" xlink:href="#p"/><use transform="matrix(0.05,0,0,0.05,162.8,0)" xlink:href="#o"/><use transform="matrix(0.05,0,0,0.05,168.75,0)" xlink:href="#u"/><use transform="matrix(0.05,0,0,0.05,177.75,0)" xlink:href="#v"/><use transform="matrix(0.05,0,0,0.05,181.7,0)" xlink:href="#r"/><use transform="matrix(0.05,0,0,0.05,190.7,0)" xlink:href="#p"/></g><path fill="#333" d="M30-248c87 1 191-15 191 75 0 78-77 80-158 76V0H30v-248zm33 125c57 0 124 11 124-50 0-59-68-47-124-48v98" id="D"/><path fill="#333" d="M24 0v-261h32V0H24" id="E"/><path fill="#333" d="M177-190C167-65 218 103 67 71c-23-6-38-20-44-43l32-5c15 47 100 32 89-28v-30C133-14 115 1 83 1 29 1 15-40 15-95c0-56 16-97 71-98 29-1 48 16 59 35 1-10 0-23 2-32h30zM94-22c36 0 50-32 50-73 0-42-14-75-50-75-39 0-46 34-46 75s6 73 46 73" id="F"/><g id="d"><use transform="matrix(0.05,0,0,0.05,0,0)" xlink:href="#D"/><use transform="matrix(0.05,0,0,0.05,12,0)" xlink:href="#o"/><use transform="matrix(0.05,0,0,0.05,17.95,0)" xlink:href="#z"/><use transform="matrix(0.05,0,0,0.05,27.950000000000003,0)" xlink:href="#x"/><use transform="matrix(0.05,0,0,0.05,37.95,0)" xlink:href="#n"/><use transform="matrix(0.05,0,0,0.05,47.95,0)" xlink:href="#r"/><use transform="matrix(0.05,0,0,0.05,56.95,0)" xlink:href="#C"/><use transform="matrix(0.05,0,0,0.05,61.95,0)" xlink:href="#m"/><use transform="matrix(0.05,0,0,0.05,74.9,0)" xlink:href="#B"/><use transform="matrix(0.05,0,0,0.05,84.9,0)" xlink:href="#C"/><use transform="matrix(0.05,0,0,0.05,89.9,0)" xlink:href="#B"/><use transform="matrix(0.05,0,0,0.05,99.9,0)" xlink:href="#E"/><use transform="matrix(0.05,0,0,0.05,103.85000000000001,0)" xlink:href="#z"/><use transform="matrix(0.05,0,0,0.05,113.85000000000001,0)" xlink:href="#F"/><use transform="matrix(0.05,0,0,0.05,123.85000000000001,0)" xlink:href="#t"/><use transform="matrix(0.05,0,0,0.05,135.85000000000002,0)" xlink:href="#p"/><use transform="matrix(0.05,0,0,0.05,145.85000000000002,0)" xlink:href="#o"/><use transform="matrix(0.05,0,0,0.05,151.8,0)" xlink:href="#u"/><use transform="matrix(0.05,0,0,0.05,160.8,0)" xlink:href="#v"/><use transform="matrix(0.05,0,0,0.05,164.75,0)" xlink:href="#r"/><use transform="matrix(0.05,0,0,0.05,173.75,0)" xlink:href="#p"/></g><path fill="#333" d="M106-169C34-169 62-67 57 0H25v-261h32l-1 103c12-21 28-36 61-36 89 0 53 116 60 194h-32v-121c2-32-8-49-39-48" id="G"/><path fill="#333" d="M87 75C49 33 22-17 22-94c0-76 28-126 65-167h31c-38 41-64 92-64 168S80 34 118 75H87" id="H"/><path fill="#333" d="M135-143c-3-34-86-38-87 0 15 53 115 12 119 90S17 21 10-45l28-5c4 36 97 45 98 0-10-56-113-15-118-90-4-57 82-63 122-42 12 7 21 19 24 35" id="I"/><path fill="#333" d="M33-261c38 41 65 92 65 168S71 34 33 75H2C39 34 66-17 66-93S39-220 2-261h31" id="J"/><g id="e"><use transform="matrix(0.05,0,0,0.05,0,0)" xlink:href="#m"/><use transform="matrix(0.05,0,0,0.05,12.950000000000001,0)" xlink:href="#B"/><use transform="matrix(0.05,0,0,0.05,22.950000000000003,0)" xlink:href="#r"/><use transform="matrix(0.05,0,0,0.05,31.950000000000003,0)" xlink:href="#G"/><use transform="matrix(0.05,0,0,0.05,41.95,0)" xlink:href="#p"/><use transform="matrix(0.05,0,0,0.05,51.95,0)" xlink:href="#H"/><use transform="matrix(0.05,0,0,0.05,57.900000000000006,0)" xlink:href="#y"/><use transform="matrix(0.05,0,0,0.05,70.85000000000001,0)" xlink:href="#p"/><use transform="matrix(0.05,0,0,0.05,80.85000000000001,0)" xlink:href="#x"/><use transform="matrix(0.05,0,0,0.05,90.85000000000001,0)" xlink:href="#v"/><use transform="matrix(0.05,0,0,0.05,94.80000000000001,0)" xlink:href="#I"/><use transform="matrix(0.05,0,0,0.05,103.80000000000001,0)" xlink:href="#J"/></g><g id="f"><use transform="matrix(0.05,0,0,0.05,0,0)" xlink:href="#m"/><use transform="matrix(0.05,0,0,0.05,12.950000000000001,0)" xlink:href="#B"/><use transform="matrix(0.05,0,0,0.05,22.950000000000003,0)" xlink:href="#o"/><use transform="matrix(0.05,0,0,0.05,28.900000000000002,0)" xlink:href="#C"/><use transform="matrix(0.05,0,0,0.05,33.900000000000006,0)" xlink:href="#t"/><use transform="matrix(0.05,0,0,0.05,45.900000000000006,0)" xlink:href="#p"/><use transform="matrix(0.05,0,0,0.05,55.900000000000006,0)" xlink:href="#o"/><use transform="matrix(0.05,0,0,0.05,61.85,0)" xlink:href="#u"/><use transform="matrix(0.05,0,0,0.05,70.85000000000001,0)" xlink:href="#v"/><use transform="matrix(0.05,0,0,0.05,74.80000000000001,0)" xlink:href="#r"/><use transform="matrix(0.05,0,0,0.05,83.80000000000001,0)" xlink:href="#p"/></g><path fill="#333" d="M115-194c55 1 70 41 70 98S169 2 115 4C84 4 66-9 55-30l1 105H24l-1-265h31l2 30c10-21 28-34 59-34zm-8 174c40 0 45-34 45-75s-6-73-45-74c-42 0-51 32-51 76 0 43 10 73 51 73" id="K"/><g id="g"><use transform="matrix(0.05,0,0,0.05,0,0)" xlink:href="#t"/><use transform="matrix(0.05,0,0,0.05,12,0)" xlink:href="#G"/><use transform="matrix(0.05,0,0,0.05,22,0)" xlink:href="#v"/><use transform="matrix(0.05,0,0,0.05,25.950000000000003,0)" xlink:href="#K"/><use transform="matrix(0.05,0,0,0.05,35.95,0)" xlink:href="#K"/><use transform="matrix(0.05,0,0,0.05,45.95,0)" xlink:href="#v"/><use transform="matrix(0.05,0,0,0.05,49.900000000000006,0)" xlink:href="#q"/><use transform="matrix(0.05,0,0,0.05,59.900000000000006,0)" xlink:href="#F"/><use transform="matrix(0.05,0,0,0.05,69.9,0)" xlink:href="#t"/><use transform="matrix(0.05,0,0,0.05,81.9,0)" xlink:href="#p"/><use transform="matrix(0.05,0,0,0.05,91.9,0)" xlink:href="#o"/><use transform="matrix(0.05,0,0,0.05,97.85000000000001,0)" xlink:href="#u"/><use transform="matrix(0.05,0,0,0.05,106.85000000000001,0)" xlink:href="#v"/><use transform="matrix(0.05,0,0,0.05,110.80000000000001,0)" xlink:href="#r"/><use transform="matrix(0.05,0,0,0.05,119.80000000000001,0)" xlink:href="#p"/></g><g id="h"><use transform="matrix(0.05,0,0,0.05,0,0)" xlink:href="#D"/><use transform="matrix(0.05,0,0,0.05,12,0)" xlink:href="#B"/><use transform="matrix(0.05,0,0,0.05,22,0)" xlink:href="#s"/><use transform="matrix(0.05,0,0,0.05,31,0)" xlink:href="#A"/><use transform="matrix(0.05,0,0,0.05,45.95,0)" xlink:href="#p"/><use transform="matrix(0.05,0,0,0.05,55.95,0)" xlink:href="#q"/><use transform="matrix(0.05,0,0,0.05,65.95,0)" xlink:href="#C"/><use transform="matrix(0.05,0,0,0.05,70.95,0)" xlink:href="#t"/><use transform="matrix(0.05,0,0,0.05,82.95,0)" xlink:href="#p"/><use transform="matrix(0.05,0,0,0.05,92.95,0)" xlink:href="#o"/><use transform="matrix(0.05,0,0,0.05,98.9,0)" xlink:href="#u"/><use transform="matrix(0.05,0,0,0.05,107.9,0)" xlink:href="#v"/><use transform="matrix(0.05,0,0,0.05,111.85000000000001,0)" xlink:href="#r"/><use transform="matrix(0.05,0,0,0.05,120.85000000000001,0)" xlink:href="#p"/></g><path fill="#333" d="M30 0v-248h187v28H63v79h144v27H63v87h162V0H30" id="L"/><g id="i"><use transform="matrix(0.05,0,0,0.05,0,0)" xlink:href="#L"/><use transform="matrix(0.05,0,0,0.05,12,0)" xlink:href="#A"/><use transform="matrix(0.05,0,0,0.05,26.950000000000003,0)" xlink:href="#B"/><use transform="matrix(0.05,0,0,0.05,36.95,0)" xlink:href="#v"/><use transform="matrix(0.05,0,0,0.05,40.900000000000006,0)" xlink:href="#E"/><use transform="matrix(0.05,0,0,0.05,44.85000000000001,0)" xlink:href="#t"/><use transform="matrix(0.05,0,0,0.05,56.85,0)" xlink:href="#p"/><use transform="matrix(0.05,0,0,0.05,66.85000000000001,0)" xlink:href="#o"/><use transform="matrix(0.05,0,0,0.05,72.80000000000001,0)" xlink:href="#u"/><use transform="matrix(0.05,0,0,0.05,81.80000000000001,0)" xlink:href="#v"/><use transform="matrix(0.05,0,0,0.05,85.75000000000001,0)" xlink:href="#r"/><use transform="matrix(0.05,0,0,0.05,94.75000000000001,0)" xlink:href="#p"/></g><path fill="#333" d="M143 0L79-87 56-68V0H24v-261h32v163l83-92h37l-77 82L181 0h-38" id="M"/><g id="j"><use transform="matrix(0.05,0,0,0.05,0,0)" xlink:href="#m"/><use transform="matrix(0.05,0,0,0.05,12.950000000000001,0)" xlink:href="#G"/><use transform="matrix(0.05,0,0,0.05,22.950000000000003,0)" xlink:href="#p"/><use transform="matrix(0.05,0,0,0.05,32.95,0)" xlink:href="#r"/><use transform="matrix(0.05,0,0,0.05,41.95,0)" xlink:href="#M"/><use transform="matrix(0.05,0,0,0.05,50.95,0)" xlink:href="#z"/><use transform="matrix(0.05,0,0,0.05,60.95,0)" xlink:href="#n"/><use transform="matrix(0.05,0,0,0.05,70.95,0)" xlink:href="#C"/><use transform="matrix(0.05,0,0,0.05,75.95,0)" xlink:href="#t"/><use transform="matrix(0.05,0,0,0.05,87.95,0)" xlink:href="#p"/><use transform="matrix(0.05,0,0,0.05,97.95,0)" xlink:href="#o"/><use transform="matrix(0.05,0,0,0.05,103.9,0)" xlink:href="#u"/><use transform="matrix(0.05,0,0,0.05,112.9,0)" xlink:href="#v"/><use transform="matrix(0.05,0,0,0.05,116.85000000000001,0)" xlink:href="#r"/><use transform="matrix(0.05,0,0,0.05,125.85000000000001,0)" xlink:href="#p"/></g><path fill="#333" d="M63-220v92h138v28H63V0H30v-248h175v28H63" id="N"/><g id="k"><use transform="matrix(0.05,0,0,0.05,0,0)" xlink:href="#N"/><use transform="matrix(0.05,0,0,0.05,10.950000000000001,0)" xlink:href="#o"/><use transform="matrix(0.05,0,0,0.05,16.900000000000002,0)" xlink:href="#z"/><use transform="matrix(0.05,0,0,0.05,26.900000000000002,0)" xlink:href="#q"/><use transform="matrix(0.05,0,0,0.05,36.900000000000006,0)" xlink:href="#C"/><use transform="matrix(0.05,0,0,0.05,41.900000000000006,0)" xlink:href="#p"/><use transform="matrix(0.05,0,0,0.05,51.900000000000006,0)" xlink:href="#q"/><use transform="matrix(0.05,0,0,0.05,61.900000000000006,0)" xlink:href="#x"/></g><path fill="#333" d="M30 0v-248h33v221h125V0H30" id="O"/><path fill="#333" d="M143 4C61 4 22-44 18-125c-5-107 100-154 193-111 17 8 29 25 37 43l-32 9c-13-25-37-40-76-40-61 0-88 39-88 99 0 61 29 100 91 101 35 0 62-11 79-27v-45h-74v-28h105v86C228-13 192 4 143 4" id="P"/><g id="l"><use transform="matrix(0.05,0,0,0.05,0,0)" xlink:href="#O"/><use transform="matrix(0.05,0,0,0.05,10,0)" xlink:href="#z"/><use transform="matrix(0.05,0,0,0.05,20,0)" xlink:href="#B"/><use transform="matrix(0.05,0,0,0.05,30,0)" xlink:href="#x"/><use transform="matrix(0.05,0,0,0.05,40,0)" xlink:href="#P"/><use transform="matrix(0.05,0,0,0.05,54,0)" xlink:href="#p"/><use transform="matrix(0.05,0,0,0.05,64,0)" xlink:href="#q"/><use transform="matrix(0.05,0,0,0.05,74,0)" xlink:href="#p"/><use transform="matrix(0.05,0,0,0.05,84,0)" xlink:href="#o"/><use transform="matrix(0.05,0,0,0.05,89.95,0)" xlink:href="#B"/><use transform="matrix(0.05,0,0,0.05,99.95,0)" xlink:href="#C"/><use transform="matrix(0.05,0,0,0.05,104.95,0)" xlink:href="#z"/><use transform="matrix(0.05,0,0,0.05,114.95,0)" xlink:href="#o"/></g></defs></g></svg>